<svg xmlns="http://www.w3.org/2000/svg" xmlns:xlink="http://www.w3.org/1999/xlink" viewBox="0 0 2639.88 1733.35"><defs><style>.cls-1,.cls-10,.cls-11,.cls-12,.cls-2,.cls-3,.cls-4,.cls-5,.cls-6,.cls-7,.cls-8,.cls-9{fill:none;stroke-miterlimit:10;stroke-width:45px;}.cls-1{stroke:url(#linear-gradient);}.cls-2{stroke:url(#linear-gradient-2);}.cls-3{stroke:url(#linear-gradient-3);}.cls-4{stroke:url(#linear-gradient-4);}.cls-5{stroke:url(#linear-gradient-5);}.cls-6{stroke:url(#linear-gradient-6);}.cls-7{stroke:url(#linear-gradient-7);}.cls-8{stroke:url(#linear-gradient-8);}.cls-9{stroke:url(#linear-gradient-9);}.cls-10{stroke:url(#linear-gradient-10);}.cls-11{stroke:url(#linear-gradient-11);}.cls-12{stroke:url(#linear-gradient-12);}</style><linearGradient id="linear-gradient" x1="1819.78" y1="881.06" x2="2465.61" y2="394.39" gradientTransform="translate(405.09 1731.77) rotate(-53)" gradientUnits="userSpaceOnUse"><stop offset="0" stop-color="#7d2a90"/><stop offset="1" stop-color="#60489d"/></linearGradient><linearGradient id="linear-gradient-2" x1="2229.57" y1="381.13" x2="1645.5" y2="1006.72" gradientTransform="translate(188.22 1405.67) rotate(-43.03)" xlink:href="#linear-gradient"/><linearGradient id="linear-gradient-3" x1="1783.2" y1="132.11" x2="1711.25" y2="926.2" gradientTransform="translate(84.88 1146.37) rotate(-35.18)" xlink:href="#linear-gradient"/><linearGradient id="linear-gradient-4" x1="1846.4" y1="338.94" x2="1390.5" y2="1089.63" gradientTransform="translate(56.4 1025.82) rotate(-31.27)" xlink:href="#linear-gradient"/><linearGradient id="linear-gradient-5" x1="1558.48" y1="520.81" x2="918.84" y2="1029.78" gradientTransform="translate(41.11 744.37) rotate(-21.49)" xlink:href="#linear-gradient"/><linearGradient id="linear-gradient-6" x1="1401.29" y1="565.7" x2="597.59" y2="810.9" gradientTransform="translate(84.37 530.78) rotate(-13.03)" xlink:href="#linear-gradient"/><linearGradient id="linear-gradient-7" x1="845.71" y1="1179.07" x2="1134.51" y2="364.89" gradientTransform="matrix(1, -0.08, 0.08, 1, 168.41, 359.96)" xlink:href="#linear-gradient"/><linearGradient id="linear-gradient-8" x1="848.01" y1="1560.16" x2="1287.26" y2="799.36" gradientTransform="matrix(1, 0, 0, 1, 0, 0)" xlink:href="#linear-gradient"/><linearGradient id="linear-gradient-9" x1="222.47" y1="1169.64" x2="856.88" y2="644.69" gradientTransform="translate(156.35 356.35) rotate(-5.39)" xlink:href="#linear-gradient"/><linearGradient id="linear-gradient-10" x1="-61.7" y1="914.44" x2="753.39" y2="687.09" gradientTransform="translate(37.59 445.12) rotate(-14.42)" xlink:href="#linear-gradient"/><linearGradient id="linear-gradient-11" x1="-155.56" y1="722.52" x2="718.51" y2="784.76" gradientTransform="translate(-23.59 485.22) rotate(-19.07)" xlink:href="#linear-gradient"/><linearGradient id="linear-gradient-12" x1="-232.49" y1="748.9" x2="499.87" y2="1076.05" gradientTransform="translate(-93.17 517.85) rotate(-24.07)" xlink:href="#linear-gradient"/></defs><g id="Layer_1" data-name="Layer 1"><polygon class="cls-1" points="1803.87 27.08 2116.67 764 2598.46 124.65 1803.87 27.08"/><polygon class="cls-2" points="1688.6 195.62 1869.14 975.55 2454.32 429.23 1688.6 195.62"/><polygon class="cls-3" points="1584.99 298.13 1657.24 1095.43 2311.59 634.21 1584.99 298.13"/><polygon class="cls-4" points="1448.68 395.55 1466.43 1195.91 2150.69 780.36 1448.68 395.55"/><polygon class="cls-5" points="1322.31 482.7 1203.84 1274.45 1948.75 981.17 1322.31 482.7"/><polygon class="cls-6" points="1201.74 538.18 968.13 1303.9 1748.07 1123.35 1201.74 538.18"/><polygon class="cls-7" points="1086.08 613.14 741.8 1335.89 1539.86 1272.67 1086.08 613.14"/><polygon class="cls-8" points="957.82 654.16 557.54 1347.46 1358.1 1347.46 957.82 654.16"/><polygon class="cls-9" points="768.02 656.2 434.68 1384.06 1231.7 1308.81 768.02 656.2"/><polygon class="cls-10" points="547.4 707.53 332.32 1478.66 1107.67 1279.36 547.4 707.53"/><polygon class="cls-11" points="348.97 780.44 197.22 1566.49 953.83 1304.89 348.97 780.44"/><polygon class="cls-12" points="109.11 900.63 26.41 1696.91 757.35 1370.39 109.11 900.63"/></g></svg>