<?xml version="1.0" encoding="utf-8"?>
<!-- Generator: Adobe Illustrator 25.1.0, SVG Export Plug-In . SVG Version: 6.00 Build 0)  -->
<svg version="1.1" id="Layer_1" xmlns="http://www.w3.org/2000/svg" xmlns:xlink="http://www.w3.org/1999/xlink" x="0px" y="0px"
	 viewBox="0 0 32 32" style="enable-background:new 0 0 32 32;" xml:space="preserve">
<style type="text/css">
	.st0{fill-rule:evenodd;clip-rule:evenodd;fill:#CCCCCC;}
	.st1{fill-rule:evenodd;clip-rule:evenodd;fill:#A6A6A6;}
	.st2{fill-rule:evenodd;clip-rule:evenodd;fill:#BDBDBD;}
	.st3{fill-rule:evenodd;clip-rule:evenodd;fill:#E9EDED;}
</style>
<g transform="translate(-574 -1274.362)">
	<path class="st0" d="M590,1287.1v19.2c0,0-10.5-4.5-14.9-6.4l0,0v-19.2l0,0L590,1287.1L590,1287.1z"/>
	<path class="st1" d="M604.9,1280.7L604.9,1280.7l-14.9,6.4v19.2l14.9-6.4l0,0V1280.7z"/>
	<path class="st2" d="M589.7,1274.4l-14.7,6.4v0l15,6.4l15-6.4l-14.8-6.4H590H589.7L589.7,1274.4z"/>
	<path class="st3" d="M594.6,1276.3L594.6,1276.3l-14.9,6.5v9l2.6-1.3l2.6,3.9l0-9.4l14.9-6.5L594.6,1276.3z"/>
</g>
</svg>
