<?xml version="1.0" encoding="utf-8"?>
<!-- Generator: Adobe Illustrator 25.1.0, SVG Export Plug-In . SVG Version: 6.00 Build 0)  -->
<svg version="1.1" id="Layer_1" xmlns="http://www.w3.org/2000/svg" xmlns:xlink="http://www.w3.org/1999/xlink" x="0px" y="0px"
	 viewBox="0 0 24 24" style="enable-background:new 0 0 24 24;" xml:space="preserve">
<style type="text/css">
	.st0{fill:#FFFFFF;}
</style>
<path class="st0" d="M8.8,20.2c-1,0-1.9,0.8-1.9,1.9c0,1,0.8,1.9,1.9,1.9s1.9-0.8,1.9-1.9C10.7,21.1,9.9,20.2,8.8,20.2z M22.1,16.4
	H6.9c-0.7,0-1.3-0.6-1.3-1.3c0-0.7,0.6-1.3,1.3-1.3h10.7c1.7,0,3.2-1.1,3.6-2.7l2-7c0.2-0.7-0.2-1.4-0.9-1.6c-0.1,0-0.2,0-0.3,0H6.6
	C6.1,1,4.7,0,3.1,0H1.9C1.2,0,0.6,0.6,0.6,1.3s0.6,1.3,1.3,1.3h1.2c0.6,0,1.1,0.4,1.2,0.9l0.2,0.7l0,0l2.1,7.3
	c-2.1,0.2-3.6,2.1-3.4,4.2c0.2,1.9,1.8,3.4,3.8,3.4h15.2c0.7,0,1.3-0.6,1.3-1.3S22.8,16.4,22.1,16.4z M20.4,5.1l-1.5,5.4
	c-0.2,0.5-0.7,0.9-1.2,0.9H9.2l-0.3-1.1L7.4,5.1H20.4z M18.9,20.2c-1,0-1.9,0.8-1.9,1.9c0,1,0.8,1.9,1.9,1.9c1,0,1.9-0.8,1.9-1.9
	C20.8,21.1,20,20.2,18.9,20.2z"/>
</svg>
