<?xml version="1.0" encoding="utf-8"?>
<!-- Generator: Adobe Illustrator 25.1.0, SVG Export Plug-In . SVG Version: 6.00 Build 0)  -->
<svg version="1.1" id="Layer_1" xmlns="http://www.w3.org/2000/svg" xmlns:xlink="http://www.w3.org/1999/xlink" x="0px" y="0px"
	 viewBox="0 0 32.2 32" style="enable-background:new 0 0 32.2 32;" xml:space="preserve">
<style type="text/css">
	.st0{fill:#E9EDED;}
</style>
<path class="st0" d="M1.8,16.3L16.1,3.8l14.3,12.4c0.4,0.4,1.1,0.3,1.4-0.1c0.4-0.4,0.3-1-0.1-1.4l-15-13c-0.4-0.3-0.9-0.3-1.3,0
	l-5.3,4.6V4.5c0-1.1-0.9-2-2-2s-2,0.9-2,2v5.3l-5.7,4.9c-0.4,0.4-0.5,1-0.1,1.4C0.7,16.6,1.4,16.6,1.8,16.3z M12.1,20.5h8v10h6
	c1.1,0,2-0.9,2-2v-9.8c0-0.6-0.3-1.2-0.7-1.5L17.4,9c-0.7-0.6-1.8-0.6-2.5,0l-10,8.2c-0.5,0.4-0.7,0.9-0.7,1.5v9.8c0,1.1,0.9,2,2,2
	h6V20.5z"/>
</svg>
