<svg id="Layer_1" data-name="Layer 1" xmlns="http://www.w3.org/2000/svg" xmlns:xlink="http://www.w3.org/1999/xlink" viewBox="0 0 168.19 62.24"><defs><style>.cls-1{fill:url(#linear-gradient);}.cls-2{fill:url(#linear-gradient-2);}.cls-3{fill:url(#linear-gradient-3);}.cls-4{fill:url(#linear-gradient-4);}.cls-5{fill:url(#linear-gradient-5);}.cls-6{fill:url(#linear-gradient-6);}.cls-7{fill:url(#linear-gradient-7);}.cls-8{fill:url(#linear-gradient-8);}.cls-9{fill:url(#linear-gradient-9);}.cls-10{fill:url(#linear-gradient-10);}.cls-11{fill:url(#linear-gradient-11);}</style><linearGradient id="linear-gradient" x1="340.87" y1="-288.27" x2="384.05" y2="-320.81" gradientTransform="translate(183.36 571.61) rotate(-53)" gradientUnits="userSpaceOnUse"><stop offset="0" stop-color="#7d2a90"/><stop offset="1" stop-color="#60489d"/></linearGradient><linearGradient id="linear-gradient-2" x1="323.09" y1="-298.29" x2="366.27" y2="-330.83" xlink:href="#linear-gradient"/><linearGradient id="linear-gradient-3" x1="18.32" y1="108.14" x2="32.71" y2="93.74" gradientUnits="userSpaceOnUse"><stop offset="0" stop-color="#662d91"/><stop offset="1" stop-color="#9e1f63"/></linearGradient><linearGradient id="linear-gradient-4" x1="33.44" y1="108.59" x2="48.62" y2="93.4" xlink:href="#linear-gradient-3"/><linearGradient id="linear-gradient-5" x1="52.39" y1="106.94" x2="64.54" y2="94.78" gradientUnits="userSpaceOnUse"><stop offset="0" stop-color="#bcbec0"/><stop offset="1" stop-color="#f1f2f2"/></linearGradient><linearGradient id="linear-gradient-6" x1="69.04" y1="106.98" x2="81.28" y2="94.74" xlink:href="#linear-gradient-5"/><linearGradient id="linear-gradient-7" x1="87.71" y1="109.33" x2="104.62" y2="92.41" xlink:href="#linear-gradient-5"/><linearGradient id="linear-gradient-8" x1="108.69" y1="107.94" x2="122.67" y2="93.95" xlink:href="#linear-gradient-5"/><linearGradient id="linear-gradient-9" x1="124.79" y1="108.34" x2="137.94" y2="95.19" xlink:href="#linear-gradient-5"/><linearGradient id="linear-gradient-10" x1="143.73" y1="106.94" x2="155.89" y2="94.78" xlink:href="#linear-gradient-5"/><linearGradient id="linear-gradient-11" x1="158.35" y1="107.94" x2="172.33" y2="93.95" xlink:href="#linear-gradient-5"/></defs><path class="cls-1" d="M152.08,125.9l-23-54.07L187.43,79Zm-15.9-48.76,17,40,26.15-34.69Z" transform="translate(-19.24 -71.83)"/><path class="cls-2" d="M133.38,134.06,110.43,80l58.3,7.16Zm-15.9-48.75,17,40L160.6,90.6Z" transform="translate(-19.24 -71.83)"/><path class="cls-3" d="M31.94,106v3H19.24V92.67H31.63v3H23v3.56h7.62v3H23V106Z" transform="translate(-19.24 -71.83)"/><path class="cls-4" d="M48.24,106v3.09H33.9V106.6l9-10.84H34.09V92.67h13.8v2.46l-9,10.84Z" transform="translate(-19.24 -71.83)"/><path class="cls-5" d="M54.08,108.16a8,8,0,0,1-3.1-3,8.73,8.73,0,0,1,0-8.59,7.94,7.94,0,0,1,3.11-3,9.08,9.08,0,0,1,4.45-1.09,9.34,9.34,0,0,1,3.52.64A7.23,7.23,0,0,1,64.77,95l-1.52,1.48a6.09,6.09,0,0,0-4.61-2,6.8,6.8,0,0,0-3.31.82A6,6,0,0,0,53,97.64a6.66,6.66,0,0,0,0,6.44,5.9,5.9,0,0,0,2.3,2.27,6.8,6.8,0,0,0,3.31.82,6.13,6.13,0,0,0,4.61-2l1.52,1.47a7.1,7.1,0,0,1-2.72,1.92,9.21,9.21,0,0,1-3.53.66A9,9,0,0,1,54.08,108.16Z" transform="translate(-19.24 -71.83)"/><path class="cls-6" d="M70.7,108.16a8.09,8.09,0,0,1-3.13-3,8.69,8.69,0,0,1,0-8.57,8,8,0,0,1,3.13-3,9.67,9.67,0,0,1,8.92,0,7.9,7.9,0,0,1,3.12,3,8.8,8.8,0,0,1,0,8.59,8,8,0,0,1-3.12,3,9.67,9.67,0,0,1-8.92,0Zm7.72-1.81a6,6,0,0,0,2.27-2.27,6.66,6.66,0,0,0,0-6.44,6,6,0,0,0-2.27-2.26,6.51,6.51,0,0,0-3.25-.82,6.6,6.6,0,0,0-3.26.82,6,6,0,0,0-2.3,2.26,6.66,6.66,0,0,0,0,6.44,5.9,5.9,0,0,0,2.3,2.27,6.6,6.6,0,0,0,3.26.82A6.51,6.51,0,0,0,78.42,106.35Z" transform="translate(-19.24 -71.83)"/><path class="cls-7" d="M102.65,109.06l0-11.94-5.92,9.95H95.62L89.7,97.19v11.87H87.45V92.67h1.92l6.84,11.52L103,92.67h1.92l0,16.39Z" transform="translate(-19.24 -71.83)"/><path class="cls-8" d="M121.71,107v2H109.82V92.67h11.57v2h-9.23v5h8.22v2h-8.22V107Z" transform="translate(-19.24 -71.83)"/><path class="cls-9" d="M136.47,109.06l-3.54-5c-.43,0-.78,0-1,0h-4.05v5h-2.34V92.67h6.39a7.58,7.58,0,0,1,5,1.52,5.17,5.17,0,0,1,1.82,4.19,5.49,5.49,0,0,1-.93,3.23,5.37,5.37,0,0,1-2.67,2l3.88,5.5Zm-1.24-7.94a3.78,3.78,0,0,0,0-5.47,5.3,5.3,0,0,0-3.4-1h-4v7.38h4A5.24,5.24,0,0,0,135.23,101.12Z" transform="translate(-19.24 -71.83)"/><path class="cls-10" d="M145.43,108.16a8,8,0,0,1-3.1-3,8.73,8.73,0,0,1,0-8.59,7.88,7.88,0,0,1,3.11-3,9.08,9.08,0,0,1,4.45-1.09,9.25,9.25,0,0,1,3.51.64A7.19,7.19,0,0,1,156.12,95l-1.52,1.48a6.11,6.11,0,0,0-4.62-2,6.78,6.78,0,0,0-3.3.82,6,6,0,0,0-2.31,2.26,6.66,6.66,0,0,0,0,6.44,6,6,0,0,0,2.31,2.27,6.78,6.78,0,0,0,3.3.82,6.14,6.14,0,0,0,4.62-2l1.52,1.47a7.14,7.14,0,0,1-2.73,1.92,9.16,9.16,0,0,1-3.52.66A9,9,0,0,1,145.43,108.16Z" transform="translate(-19.24 -71.83)"/><path class="cls-11" d="M171.37,107v2h-11.9V92.67H171v2h-9.23v5H170v2h-8.22V107Z" transform="translate(-19.24 -71.83)"/></svg>