<?xml version="1.0" encoding="utf-8"?>
<!-- Generator: Adobe Illustrator 25.1.0, SVG Export Plug-In . SVG Version: 6.00 Build 0)  -->
<svg version="1.1" xmlns="http://www.w3.org/2000/svg" xmlns:xlink="http://www.w3.org/1999/xlink" x="0px" y="0px"
	 viewBox="0 0 24 24" style="enable-background:new 0 0 24 24;" xml:space="preserve">
<style type="text/css">
	.st0{fill-rule:evenodd;clip-rule:evenodd;fill:#FFFFFF;}
</style>
<g id="Layer_1">
	<path class="st0" d="M14.9,16.7c-1.6,1.2-3.5,1.9-5.6,1.9C4.2,18.6,0,14.4,0,9.3C0,4.2,4.2,0,9.3,0c5.1,0,9.3,4.2,9.3,9.3
		c0,2.1-0.7,4-1.9,5.6l6.9,6.9c0.5,0.5,0.5,1.4,0,1.9c-0.5,0.5-1.4,0.5-1.9,0L14.9,16.7z M15.9,9.3c0,3.7-3,6.6-6.6,6.6
		c-3.7,0-6.6-3-6.6-6.6c0-3.7,3-6.6,6.6-6.6C13,2.7,15.9,5.6,15.9,9.3z"/>
</g>
<g id="Layer_2">
</g>
</svg>
