<?xml version="1.0" encoding="utf-8"?>
<!-- Generator: Adobe Illustrator 25.1.0, SVG Export Plug-In . SVG Version: 6.00 Build 0)  -->
<svg version="1.1" id="Layer_1" xmlns="http://www.w3.org/2000/svg" xmlns:xlink="http://www.w3.org/1999/xlink" x="0px" y="0px"
	 viewBox="0 0 48 48" style="enable-background:new 0 0 48 48;" xml:space="preserve">
<style type="text/css">
	.st0{fill:#F8F9F9;}
	.st1{fill:#65449B;stroke:#E3E3E3;stroke-width:2;stroke-miterlimit:10;}
	.st2{fill:#E3E3E3;}
	.st3{fill:#65449B;}
	.st4{fill:#BEC6C6;}
</style>
<path class="st0" d="M46,26c-3.1,5.5-3.8,8-5,13H8c-0.6-3-1.4-5.9-2.6-8.7C4.4,28.1,3.3,26,2,24h17l5,2H46z"/>
<rect x="5" y="16" class="st1" width="12" height="8"/>
<path class="st0" d="M14,10v6H8v-6c0-1.1,0.9-2,2-2h2C13.1,8,14,8.9,14,10z"/>
<path class="st0" d="M27,2v3l-13,7v-2c0-1.1-0.9-2-2-2h-2L27,2z"/>
<path class="st2" d="M41,40H8c-0.5,0-0.9-0.3-1-0.8l-0.4-2c-1-4.5-2.8-8.8-5.4-12.7c-0.3-0.5-0.2-1.1,0.3-1.4C1.6,23.1,1.8,23,2,23
	c18.2,0,17.1,0,17.4,0.1l4.8,1.9H46c0.6,0,1,0.4,1,1c0,0.2,0,0.4-0.1,0.5c-2.3,3.9-4,8.2-4.9,12.7C41.9,39.7,41.5,40,41,40z M8.8,38
	h31.4c0.8-3.8,2.2-7.5,4-11H24c-0.3,0-0.1,0-5.2-2h-15C6.2,29,7.9,33.4,8.8,38z"/>
<path class="st3" d="M46,36c-2.8,0-2.8,2-5.5,2s-2.8-2-5.5-2s-2.8,2-5.5,2s-2.8-2-5.5-2s-2.8,2-5.5,2s-2.8-2-5.5-2s-2.8,2-5.5,2
	S4.8,36,2,36v11h44V36z"/>
<path class="st4" d="M0,0"/>
<path class="st2" d="M18,17H4c-0.6,0-1-0.4-1-1c0-0.6,0.4-1,1-1h14c0.6,0,1,0.4,1,1C19,16.6,18.6,17,18,17z"/>
<rect x="8" y="19" class="st2" width="2" height="2"/>
<rect x="12" y="19" class="st2" width="2" height="2"/>
<path class="st2" d="M14,17H8c-0.6,0-1-0.4-1-1v-6c0-1.7,1.3-3,3-3h2c1.7,0,3,1.3,3,3v6C15,16.6,14.6,17,14,17z M9,15h4v-5
	c0-0.6-0.4-1-1-1h-2c-0.6,0-1,0.4-1,1V15z"/>
<path class="st2" d="M14,13c-0.6,0-1-0.5-1-1c0-0.4,0.2-0.7,0.5-0.9L26,4.4v-1L10.3,8.9C9.8,9.1,9.3,8.8,9.1,8.2
	C9,7.7,9.2,7.3,9.7,7.1l17-6c0.5-0.2,1.1,0.1,1.3,0.6C28,1.8,28,1.9,28,2v3c0,0.4-0.2,0.7-0.5,0.9C13.3,13.5,14.4,13,14,13z"/>
<path class="st2" d="M27,15c-3,0-3.9-4-2-4c0.6,0,1,0.4,1,1c0,0.6,0.4,1,1,1c0.6,0,1-0.4,1-1c0-0.4-0.2-0.7-0.5-0.9
	C26.5,10.6,26,9.6,26,8.5V5c0-0.6,0.4-1,1-1s1,0.4,1,1v3.5c0,0.3,0.1,0.6,0.4,0.8c1.5,0.8,2,2.6,1.2,4.1C29.1,14.4,28.1,15,27,15z"
	/>
<rect x="35" y="18" class="st0" width="8" height="8"/>
<rect x="27" y="18" class="st0" width="8" height="8"/>
<rect x="33" y="10" class="st0" width="8" height="8"/>
<path class="st2" d="M43,27h-8c-0.6,0-1-0.4-1-1v-8c0-0.6,0.4-1,1-1h8c0.6,0,1,0.4,1,1v8C44,26.6,43.6,27,43,27z M36,25h6v-6h-6V25z
	"/>
<rect x="38" y="19" class="st3" width="2" height="2"/>
<rect x="36" y="11" class="st3" width="2" height="2"/>
<path class="st2" d="M35,27h-8c-0.6,0-1-0.4-1-1v-8c0-0.6,0.4-1,1-1h8c0.6,0,1,0.4,1,1v8C36,26.6,35.6,27,35,27z M28,25h6v-6h-6V25z
	"/>
<rect x="30" y="19" class="st3" width="2" height="2"/>
<path class="st2" d="M41,19h-8c-0.6,0-1-0.4-1-1v-8c0-0.6,0.4-1,1-1h8c0.6,0,1,0.4,1,1v8C42,18.6,41.6,19,41,19z M34,17h6v-6h-6V17z
	"/>
</svg>
