<?xml version="1.0" encoding="utf-8"?>
<!-- Generator: Adobe Illustrator 25.1.0, SVG Export Plug-In . SVG Version: 6.00 Build 0)  -->
<svg version="1.1" id="Layer_1" xmlns="http://www.w3.org/2000/svg" xmlns:xlink="http://www.w3.org/1999/xlink" x="0px" y="0px"
	 viewBox="0 0 29 29" style="enable-background:new 0 0 29 29;" xml:space="preserve">
<style type="text/css">
	.st0{fill:#FFFFFF;}
</style>
<path class="st0" d="M14.5,0C6.5,0,0,6.5,0,14.5C0,22.5,6.5,29,14.5,29c8,0,14.5-6.5,14.5-14.5S22.5,0,14.5,0z M23.3,22.9
	C20.9,18,15,16,10.1,18.4c-1.9,1-3.5,2.5-4.4,4.5c-2.2-2.2-3.4-5.3-3.4-8.4c0-6.7,5.5-12.2,12.2-12.2s12.2,5.5,12.2,12.2
	C26.7,17.6,25.5,20.6,23.3,22.9z M14.5,5.8c-2.9,0-5.2,2.3-5.2,5.2s2.3,5.2,5.2,5.2s5.2-2.3,5.2-5.2S17.4,5.8,14.5,5.8L14.5,5.8z"/>
</svg>
